<svg width="500" height="500" viewBox="0 0 500 500" fill="none" xmlns="http://www.w3.org/2000/svg">
<g clip-path="url(#clip0_1001_3)">
<rect width="500" height="500" fill="black"/>
<g filter="url(#filter0_f_1001_3)">
<path d="M83.7305 -96C264.708 -95.9999 413.231 42.9468 428.445 219.982C428.473 220.308 428.658 220.602 428.942 220.766L473.062 246.239C473.729 246.624 473.729 247.587 473.062 247.971L429.408 273.175C429.12 273.341 428.933 273.644 428.91 273.976C416.596 453.882 266.761 596 83.7305 596C-50.3055 596 -166.54 519.784 -224 408.326C-170.366 496.885 -73.0978 556.07 37.9941 556.07C201.575 556.07 335.184 427.745 343.645 266.271C343.666 265.876 343.917 265.527 344.286 265.385L389.503 247.981C390.357 247.652 390.357 246.443 389.503 246.115L343.91 228.566C343.548 228.426 343.299 228.086 343.271 227.699C331.852 69.0661 199.538 -56.083 37.9941 -56.083C-73.0694 -56.0829 -170.316 3.07252 -223.959 91.5938C-166.484 -19.8203 -50.2735 -95.9999 83.7305 -96Z" fill="url(#paint0_linear_1001_3)"/>
<path d="M-97.332 130.241C-32.2147 130.241 21.1779 180.427 26.283 244.231C26.3094 244.56 26.4954 244.859 26.7815 245.024L39.4892 252.361C40.1559 252.745 40.1559 253.708 39.4892 254.093L26.9356 261.34C26.6442 261.508 26.4571 261.814 26.436 262.15C22.3659 326.966 -31.4895 378.277 -97.332 378.277C-133.162 378.277 -165.443 363.082 -188.083 338.785C-167.811 357.985 -140.438 369.763 -110.313 369.763C-50.1408 369.763 -0.943802 322.778 2.59589 263.494C2.61937 263.101 2.86948 262.754 3.23723 262.612L20.3866 256.011C20.7726 255.863 21.0273 255.492 21.0273 255.078V251.326C21.0273 250.913 20.7726 250.542 20.3865 250.393L2.58705 243.542C2.24046 243.409 1.99644 243.092 1.95119 242.723C-4.9111 186.821 -52.5561 143.532 -110.313 143.532C-155.221 143.532 -194.016 169.701 -212.281 207.621C-193.851 162.241 -149.329 130.241 -97.332 130.241Z" fill="url(#paint1_linear_1001_3)"/>
<path d="M-24.415 37.0703C87.745 37.0708 179.691 123.616 188.285 233.57C188.311 233.899 188.497 234.197 188.783 234.363L212.033 247.786C212.7 248.171 212.7 249.133 212.033 249.518L189.041 262.792C188.75 262.96 188.562 263.266 188.542 263.602C181.738 375.301 88.9949 463.787 -24.415 463.787C-109.848 463.787 -183.553 413.572 -217.627 341.048C-185.722 397.888 -124.873 436.298 -55.0518 436.298C42.171 436.297 121.998 361.826 130.503 266.816C130.537 266.435 130.784 266.103 131.141 265.966L173.813 249.543C174.667 249.214 174.667 248.005 173.813 247.676L130.866 231.146C130.514 231.01 130.268 230.686 130.229 230.311C120.398 136.667 41.1958 63.6832 -55.0518 63.6826C-122.982 63.6826 -182.419 100.04 -214.971 154.355C-179.823 84.7792 -107.69 37.0705 -24.415 37.0703Z" fill="url(#paint2_linear_1001_3)"/>
</g>
<mask id="path-4-inside-1_1001_3" fill="white">
<path d="M83.7305 -96C264.708 -95.9999 413.231 42.9468 428.445 219.982C428.473 220.308 428.658 220.602 428.942 220.766L473.062 246.239C473.729 246.624 473.729 247.587 473.062 247.971L429.408 273.175C429.12 273.341 428.933 273.644 428.91 273.976C416.596 453.882 266.761 596 83.7305 596C-50.3055 596 -166.54 519.784 -224 408.326C-170.366 496.885 -73.0978 556.07 37.9941 556.07C201.575 556.07 335.184 427.745 343.645 266.271C343.666 265.876 343.917 265.527 344.286 265.385L389.503 247.981C390.357 247.652 390.357 246.443 389.503 246.115L343.91 228.566C343.548 228.426 343.299 228.086 343.271 227.699C331.852 69.0661 199.538 -56.083 37.9941 -56.083C-73.0694 -56.0829 -170.316 3.07252 -223.959 91.5938C-166.484 -19.8203 -50.2735 -95.9999 83.7305 -96Z"/>
</mask>
<path d="M83.7305 -96L83.7305 -97L83.7305 -97L83.7305 -96ZM83.7305 596L83.7305 597L83.7305 597L83.7305 596ZM-224 408.326L-223.145 407.808L-224.889 408.784L-224 408.326ZM37.9941 556.07L37.9941 557.07H37.9941V556.07ZM37.9941 -56.083L37.9941 -57.083L37.9941 -57.083L37.9941 -56.083ZM-223.959 91.5938L-224.848 91.1353L-223.104 92.112L-223.959 91.5938ZM343.91 228.566L344.27 227.632L343.91 228.566ZM343.271 227.699L344.269 227.627L343.271 227.699ZM389.503 247.981L389.862 248.914L389.503 247.981ZM389.503 246.115L389.862 245.181L389.503 246.115ZM429.408 273.175L428.908 272.309L429.408 273.175ZM428.91 273.976L429.908 274.045L428.91 273.976ZM343.645 266.271L342.647 266.218L343.645 266.271ZM344.286 265.385L344.645 266.318L344.286 265.385ZM473.062 246.239L472.562 247.105L473.062 246.239ZM473.062 247.971L473.562 248.838L473.062 247.971ZM428.445 219.982L427.448 220.068L428.445 219.982ZM428.942 220.766L428.442 221.632L428.942 220.766ZM83.7305 -96L83.7305 -95C264.184 -94.9999 412.278 43.5451 427.448 220.068L428.445 219.982L429.441 219.896C414.183 42.3484 265.231 -96.9999 83.7305 -97L83.7305 -96ZM428.942 220.766L428.442 221.632L472.562 247.105L473.062 246.239L473.562 245.373L429.442 219.9L428.942 220.766ZM473.062 247.971L472.562 247.105L428.908 272.309L429.408 273.175L429.908 274.041L473.562 248.838L473.062 247.971ZM428.91 273.976L427.912 273.908C415.634 453.292 266.232 595 83.7305 595L83.7305 596L83.7305 597C267.291 597 417.558 454.471 429.908 274.045L428.91 273.976ZM83.7305 596L83.7305 595C-49.9167 595 -165.816 519.006 -223.111 407.868L-224 408.326L-224.889 408.784C-167.264 520.561 -50.6943 597 83.7305 597L83.7305 596ZM-224 408.326L-224.855 408.844C-171.048 497.69 -73.4619 557.07 37.9941 557.07L37.9941 556.07L37.9941 555.07C-72.7336 555.07 -169.684 496.08 -223.145 407.808L-224 408.326ZM37.9941 556.07V557.07C202.11 557.07 336.155 428.326 344.644 266.323L343.645 266.271L342.647 266.218C334.213 427.164 201.041 555.07 37.9941 555.07V556.07ZM344.286 265.385L344.645 266.318L389.862 248.914L389.503 247.981L389.144 247.048L343.926 264.451L344.286 265.385ZM389.503 246.115L389.862 245.181L344.27 227.632L343.91 228.566L343.551 229.499L389.144 247.048L389.503 246.115ZM343.271 227.699L344.269 227.627C332.812 68.475 200.066 -57.083 37.9941 -57.083V-56.083V-55.083C199.01 -55.083 330.892 69.6572 342.274 227.771L343.271 227.699ZM37.9941 -56.083L37.9941 -57.083C-73.4335 -57.0829 -170.998 2.26767 -224.814 91.0755L-223.959 91.5938L-223.104 92.112C-169.635 3.87738 -72.7054 -55.0829 37.9941 -55.083L37.9941 -56.083ZM-223.959 91.5938L-223.07 92.0522C-165.76 -19.0423 -49.8848 -94.9999 83.7305 -95L83.7305 -96L83.7305 -97C-50.6622 -96.9999 -167.208 -20.5982 -224.848 91.1353L-223.959 91.5938ZM343.91 228.566L344.27 227.632C344.272 227.633 344.272 227.634 344.271 227.632C344.269 227.63 344.269 227.629 344.269 227.627L343.271 227.699L342.274 227.771C342.329 228.54 342.823 229.218 343.551 229.499L343.91 228.566ZM389.503 247.981L389.862 248.914C391.571 248.257 391.571 245.839 389.862 245.181L389.503 246.115L389.144 247.048L389.144 247.048L389.503 247.981ZM429.408 273.175L428.908 272.309C428.328 272.644 427.958 273.247 427.912 273.908L428.91 273.976L429.908 274.045C429.908 274.044 429.908 274.042 429.909 274.041C429.91 274.039 429.91 274.04 429.908 274.041L429.408 273.175ZM343.645 266.271L344.644 266.323C344.644 266.322 344.644 266.32 344.646 266.318C344.647 266.316 344.647 266.317 344.645 266.318L344.286 265.385L343.926 264.451C343.185 264.737 342.688 265.434 342.647 266.218L343.645 266.271ZM473.062 246.239L472.562 247.105L472.562 247.105L473.062 247.971L473.562 248.838C474.896 248.068 474.896 246.143 473.562 245.373L473.062 246.239ZM428.445 219.982L427.448 220.068C427.504 220.716 427.872 221.303 428.442 221.632L428.942 220.766L429.442 219.9C429.443 219.901 429.443 219.902 429.442 219.9C429.442 219.899 429.441 219.897 429.441 219.896L428.445 219.982Z" fill="black" mask="url(#path-4-inside-1_1001_3)"/>
<mask id="path-6-inside-2_1001_3" fill="white">
<path d="M-97.332 130.241C-32.2147 130.241 21.1779 180.427 26.283 244.231C26.3094 244.56 26.4954 244.859 26.7815 245.024L39.4892 252.361C40.1559 252.745 40.1559 253.708 39.4892 254.093L26.9356 261.34C26.6442 261.508 26.4571 261.814 26.436 262.15C22.3659 326.966 -31.4895 378.277 -97.332 378.277C-133.162 378.277 -165.443 363.082 -188.083 338.785C-167.811 357.985 -140.438 369.763 -110.313 369.763C-50.1408 369.763 -0.943802 322.778 2.59589 263.494C2.61937 263.101 2.86948 262.754 3.23723 262.612L20.3866 256.011C20.7726 255.863 21.0273 255.492 21.0273 255.078V251.326C21.0273 250.913 20.7726 250.542 20.3865 250.393L2.58705 243.542C2.24046 243.409 1.99644 243.092 1.95119 242.723C-4.9111 186.821 -52.5561 143.532 -110.313 143.532C-155.221 143.532 -194.016 169.701 -212.281 207.621C-193.851 162.241 -149.329 130.241 -97.332 130.241Z"/>
</mask>
<path d="M-97.332 130.241L-97.332 129.241L-97.332 129.241L-97.332 130.241ZM-97.332 378.277L-97.332 379.277L-97.332 379.277L-97.332 378.277ZM-188.083 338.785L-187.395 338.059L-188.815 339.467L-188.083 338.785ZM-110.313 369.763L-110.313 370.763L-110.313 370.763L-110.313 369.763ZM-110.313 143.532L-110.313 142.532L-110.313 142.532L-110.313 143.532ZM-212.281 207.621L-213.208 207.245L-211.38 208.055L-212.281 207.621ZM2.58705 243.542L2.94625 242.609L2.58705 243.542ZM1.95119 242.723L2.94374 242.602L1.95119 242.723ZM20.3866 256.011L20.7458 256.945L20.3866 256.011ZM26.9356 261.34L27.4356 262.206L26.9356 261.34ZM26.436 262.15L25.4379 262.087L26.436 262.15ZM2.59589 263.494L3.59411 263.554L2.59589 263.494ZM3.23723 262.612L3.59644 263.545L3.23723 262.612ZM39.4892 252.361L38.9892 253.227L39.4892 252.361ZM39.4892 254.093L38.9892 253.227L39.4892 254.093ZM26.283 244.231L27.2799 244.151L26.283 244.231ZM26.7815 245.024L27.2815 244.158L26.7815 245.024ZM-97.332 130.241L-97.332 131.241C-32.7403 131.241 20.2223 181.023 25.2862 244.311L26.283 244.231L27.2799 244.151C22.1335 179.832 -31.6891 129.241 -97.332 129.241L-97.332 130.241ZM26.7815 245.024L26.2815 245.89L38.9892 253.227L39.4892 252.361L39.9892 251.494L27.2815 244.158L26.7815 245.024ZM39.4892 254.093L38.9892 253.227L26.4356 260.474L26.9356 261.34L27.4356 262.206L39.9891 254.959L39.4892 254.093ZM26.436 262.15L25.4379 262.087C21.4008 326.38 -32.0209 377.277 -97.332 377.277L-97.332 378.277L-97.332 379.277C-30.9582 379.277 23.3311 327.552 27.434 262.213L26.436 262.15ZM-97.332 378.277L-97.332 377.277C-132.873 377.277 -164.892 362.206 -187.351 338.103L-188.083 338.785L-188.815 339.467C-165.993 363.958 -133.451 379.277 -97.332 379.277L-97.332 378.277ZM-188.083 338.785L-188.771 339.511C-168.321 358.88 -140.704 370.763 -110.313 370.763L-110.313 369.763L-110.313 368.763C-140.172 368.763 -167.302 357.09 -187.395 338.059L-188.083 338.785ZM-110.313 369.763L-110.313 370.763C-49.6085 370.763 0.0230743 323.362 3.59411 263.554L2.59589 263.494L1.59767 263.435C-1.91068 322.193 -50.6731 368.763 -110.313 368.763L-110.313 369.763ZM3.23723 262.612L3.59644 263.545L20.7458 256.945L20.3866 256.011L20.0273 255.078L2.87801 261.679L3.23723 262.612ZM21.0273 255.078H22.0273V251.326H21.0273H20.0273V255.078H21.0273ZM20.3865 250.393L20.7458 249.46L2.94625 242.609L2.58705 243.542L2.22784 244.475L20.0273 251.326L20.3865 250.393ZM1.95119 242.723L2.94374 242.602C-3.97934 186.204 -52.0447 142.532 -110.313 142.532L-110.313 143.532L-110.313 144.532C-53.0675 144.532 -5.84286 187.438 0.958643 242.845L1.95119 242.723ZM-110.313 143.532L-110.313 142.532C-155.619 142.532 -194.756 168.934 -213.182 207.187L-212.281 207.621L-211.38 208.055C-193.275 170.468 -154.822 144.532 -110.313 144.532L-110.313 143.532ZM-212.281 207.621L-211.355 207.997C-193.072 162.981 -148.908 131.241 -97.332 131.241L-97.332 130.241L-97.332 129.241C-149.75 129.241 -194.63 161.501 -213.208 207.245L-212.281 207.621ZM2.58705 243.542L2.94625 242.609C2.94812 242.61 2.948 242.61 2.94659 242.608C2.94503 242.606 2.94405 242.604 2.94374 242.602L1.95119 242.723L0.958643 242.845C1.04823 243.575 1.53133 244.207 2.22784 244.475L2.58705 243.542ZM21.0273 251.326H22.0273C22.0273 250.499 21.5179 249.757 20.7458 249.46L20.3865 250.393L20.0273 251.326L20.0273 251.326H21.0273ZM20.3866 256.011L20.7458 256.945C21.5179 256.647 22.0273 255.905 22.0273 255.078H21.0273H20.0273L20.0273 255.078L20.3866 256.011ZM26.9356 261.34L26.4356 260.474C25.8498 260.812 25.4797 261.422 25.4379 262.087L26.436 262.15L27.434 262.213C27.4341 262.21 27.4349 262.208 27.4361 262.206C27.4372 262.204 27.4375 262.205 27.4356 262.206L26.9356 261.34ZM2.59589 263.494L3.59411 263.554C3.59427 263.551 3.59522 263.548 3.59701 263.546C3.59862 263.544 3.59874 263.544 3.59644 263.545L3.23723 262.612L2.87801 261.679C2.13839 261.964 1.64413 262.656 1.59767 263.435L2.59589 263.494ZM39.4892 252.361L38.9892 253.227L38.9892 253.227L39.4892 254.093L39.9891 254.959C41.3225 254.189 41.3226 252.264 39.9892 251.494L39.4892 252.361ZM26.283 244.231L25.2862 244.311C25.3384 244.963 25.7064 245.558 26.2815 245.89L26.7815 245.024L27.2815 244.158C27.2833 244.159 27.283 244.159 27.2819 244.158C27.2807 244.156 27.28 244.153 27.2799 244.151L26.283 244.231Z" fill="black" mask="url(#path-6-inside-2_1001_3)"/>
<mask id="path-8-inside-3_1001_3" fill="white">
<path d="M-24.415 37.0703C87.745 37.0708 179.691 123.616 188.285 233.57C188.311 233.899 188.497 234.197 188.783 234.363L212.033 247.786C212.7 248.171 212.7 249.133 212.033 249.518L189.041 262.792C188.75 262.96 188.562 263.266 188.542 263.602C181.738 375.301 88.9949 463.787 -24.415 463.787C-109.848 463.787 -183.553 413.572 -217.627 341.048C-185.722 397.888 -124.873 436.298 -55.0518 436.298C42.171 436.297 121.998 361.826 130.503 266.816C130.537 266.435 130.784 266.103 131.141 265.966L173.813 249.543C174.667 249.214 174.667 248.005 173.813 247.676L130.866 231.146C130.514 231.01 130.268 230.686 130.229 230.311C120.398 136.667 41.1958 63.6832 -55.0518 63.6826C-122.982 63.6826 -182.419 100.04 -214.971 154.355C-179.823 84.7792 -107.69 37.0705 -24.415 37.0703Z"/>
</mask>
<path d="M-24.415 37.0703L-24.415 36.0703L-24.415 36.0703L-24.415 37.0703ZM-24.415 463.787L-24.415 464.787L-24.415 464.787L-24.415 463.787ZM-217.627 341.048L-216.755 340.558L-218.532 341.473L-217.627 341.048ZM-55.0518 436.298L-55.0518 437.298L-55.0518 437.298L-55.0518 436.298ZM-55.0518 63.6826L-55.0518 62.6826H-55.0518V63.6826ZM-214.971 154.355L-215.863 153.905L-214.113 154.87L-214.971 154.355ZM130.866 231.146L130.506 232.079L130.866 231.146ZM130.229 230.311L131.223 230.207L130.229 230.311ZM173.813 249.543L174.172 250.476L173.813 249.543ZM173.813 247.676L173.453 248.609L173.813 247.676ZM189.041 262.792L188.541 261.926L189.041 262.792ZM188.542 263.602L189.54 263.663L188.542 263.602ZM130.503 266.816L131.499 266.905L130.503 266.816ZM131.141 265.966L131.5 266.899L131.141 265.966ZM212.033 247.786L211.533 248.652L212.033 247.786ZM212.033 249.518L211.533 248.652L212.033 249.518ZM188.285 233.57L189.282 233.492L188.285 233.57ZM188.783 234.363L189.283 233.497L188.783 234.363ZM-24.415 37.0703L-24.415 38.0703C87.2189 38.0708 178.734 124.211 187.289 233.648L188.285 233.57L189.282 233.492C180.647 123.022 88.2712 36.0708 -24.415 36.0703L-24.415 37.0703ZM188.783 234.363L188.283 235.229L211.533 248.652L212.033 247.786L212.533 246.92L189.283 233.497L188.783 234.363ZM212.033 249.518L211.533 248.652L188.541 261.926L189.041 262.792L189.541 263.658L212.533 250.384L212.033 249.518ZM188.542 263.602L187.544 263.541C180.771 374.715 88.463 462.787 -24.415 462.787L-24.415 463.787L-24.415 464.787C89.5269 464.787 182.704 375.886 189.54 263.663L188.542 263.602ZM-24.415 463.787L-24.415 462.787C-109.446 462.787 -182.806 412.809 -216.722 340.623L-217.627 341.048L-218.532 341.473C-184.299 414.335 -110.25 464.787 -24.415 464.787L-24.415 463.787ZM-217.627 341.048L-218.499 341.537C-186.424 398.68 -125.249 437.298 -55.0518 437.298V436.298V435.298C-124.497 435.298 -185.02 397.096 -216.755 340.558L-217.627 341.048ZM-55.0518 436.298L-55.0518 437.298C42.6934 437.297 122.948 362.426 131.499 266.905L130.503 266.816L129.507 266.727C121.047 361.226 41.6486 435.297 -55.0518 435.298L-55.0518 436.298ZM131.141 265.966L131.5 266.899L174.172 250.476L173.813 249.543L173.453 248.609L130.782 265.033L131.141 265.966ZM173.813 247.676L174.172 246.743L131.225 230.212L130.866 231.146L130.506 232.079L173.453 248.609L173.813 247.676ZM130.229 230.311L131.223 230.207C121.339 136.059 41.7131 62.6832 -55.0518 62.6826L-55.0518 63.6826L-55.0518 64.6826C40.6786 64.6832 119.456 137.275 129.234 230.415L130.229 230.311ZM-55.0518 63.6826V62.6826C-123.348 62.6826 -183.104 99.237 -215.828 153.841L-214.971 154.355L-214.113 154.87C-181.734 100.843 -122.616 64.6826 -55.0518 64.6826V63.6826ZM-214.971 154.355L-214.078 154.806C-179.094 85.5537 -107.299 38.0705 -24.415 38.0703L-24.415 37.0703L-24.415 36.0703C-108.082 36.0705 -180.552 84.0046 -215.863 153.905L-214.971 154.355ZM130.866 231.146L131.225 230.212C131.227 230.213 131.227 230.214 131.225 230.212C131.224 230.21 131.223 230.208 131.223 230.207L130.229 230.311L129.234 230.415C129.312 231.159 129.799 231.807 130.506 232.079L130.866 231.146ZM173.813 249.543L174.172 250.476C175.881 249.818 175.881 247.401 174.172 246.743L173.813 247.676L173.453 248.609L173.453 248.609L173.813 249.543ZM189.041 262.792L188.541 261.926C187.955 262.264 187.584 262.875 187.544 263.541L188.542 263.602L189.54 263.663C189.54 263.662 189.541 263.66 189.542 263.658C189.543 263.656 189.543 263.657 189.541 263.658L189.041 262.792ZM130.503 266.816L131.499 266.905C131.499 266.903 131.5 266.901 131.501 266.899C131.502 266.898 131.502 266.898 131.5 266.899L131.141 265.966L130.782 265.033C130.065 265.309 129.574 265.971 129.507 266.727L130.503 266.816ZM212.033 247.786L211.533 248.652L211.533 248.652L212.033 249.518L212.533 250.384C213.866 249.615 213.867 247.69 212.533 246.92L212.033 247.786ZM188.285 233.57L187.289 233.648C187.34 234.302 187.709 234.897 188.283 235.229L188.783 234.363L189.283 233.497C189.285 233.498 189.285 233.498 189.284 233.497C189.283 233.495 189.283 233.493 189.282 233.492L188.285 233.57Z" fill="black" mask="url(#path-8-inside-3_1001_3)"/>
<rect x="-3" width="500" height="500" fill="black" fill-opacity="0.7"/>
</g>
<defs>
<filter id="filter0_f_1001_3" x="-279" y="-151" width="807.562" height="802" filterUnits="userSpaceOnUse" color-interpolation-filters="sRGB">
<feFlood flood-opacity="0" result="BackgroundImageFix"/>
<feBlend mode="normal" in="SourceGraphic" in2="BackgroundImageFix" result="shape"/>
<feGaussianBlur stdDeviation="27.5" result="effect1_foregroundBlur_1001_3"/>
</filter>
<linearGradient id="paint0_linear_1001_3" x1="706.841" y1="227.826" x2="-212.172" y2="227.826" gradientUnits="userSpaceOnUse">
<stop offset="0.0103566" stop-color="#FFD000"/>
<stop offset="1" stop-color="#240061"/>
</linearGradient>
<linearGradient id="paint1_linear_1001_3" x1="125.181" y1="246.312" x2="-203.349" y2="246.312" gradientUnits="userSpaceOnUse">
<stop offset="0.0103566" stop-color="#FFD000"/>
<stop offset="1" stop-color="#240061"/>
</linearGradient>
<linearGradient id="paint2_linear_1001_3" x1="359.276" y1="236.756" x2="-206.62" y2="236.756" gradientUnits="userSpaceOnUse">
<stop offset="0.0103566" stop-color="#FFD000"/>
<stop offset="1" stop-color="#240061"/>
</linearGradient>
<clipPath id="clip0_1001_3">
<rect width="500" height="500" fill="white"/>
</clipPath>
</defs>
</svg>
