<svg width="220" height="62" viewBox="0 0 220 62" fill="none" xmlns="http://www.w3.org/2000/svg">
<mask id="path-1-outside-1_876_4" maskUnits="userSpaceOnUse" x="78.9893" y="15.2987" width="142" height="30" fill="black">
<rect fill="white" x="78.9893" y="15.2987" width="142" height="30"/>
<path d="M79.9893 43.1032V18.2184H89.1255C91.7562 18.2184 94.0314 18.7516 95.9511 19.8181C97.8945 20.8846 99.3994 22.354 100.466 24.2263C101.556 26.0986 102.101 28.2434 102.101 30.6608C102.101 33.0782 101.556 35.223 100.466 37.0953C99.3994 38.9676 97.8945 40.437 95.9511 41.5035C94.0314 42.57 91.7562 43.1032 89.1255 43.1032H79.9893ZM85.9616 38.1262H88.9833C90.3579 38.1262 91.5785 37.83 92.645 37.2375C93.7352 36.6213 94.5884 35.7563 95.2046 34.6424C95.8208 33.5285 96.1289 32.2013 96.1289 30.6608C96.1289 29.1203 95.8208 27.7931 95.2046 26.6792C94.5884 25.5653 93.7352 24.7121 92.645 24.1196C91.5785 23.5034 90.3579 23.1953 88.9833 23.1953H85.9616V38.1262Z"/>
<path d="M115.75 43.1032C113.688 43.1032 111.875 42.724 110.311 41.9656C108.747 41.1835 107.526 40.117 106.649 38.7661C105.796 37.3915 105.37 35.8037 105.37 34.0025C105.37 32.0117 105.784 30.3053 106.614 28.8833C107.443 27.4613 108.545 26.3711 109.92 25.6127C111.318 24.8306 112.859 24.4396 114.541 24.4396C116.461 24.4396 118.061 24.8425 119.341 25.6483C120.644 26.4541 121.628 27.5561 122.291 28.9544C122.955 30.329 123.287 31.905 123.287 33.6825C123.287 33.9906 123.263 34.358 123.216 34.7846C123.192 35.1875 123.156 35.5074 123.109 35.7444H111.164C111.306 36.3606 111.579 36.882 111.982 37.3086C112.385 37.7352 112.894 38.0551 113.51 38.2684C114.127 38.458 114.814 38.5528 115.572 38.5528H121.154V43.1032H115.75ZM111.022 32.2961H117.954C117.907 31.9169 117.836 31.5495 117.741 31.194C117.646 30.8385 117.492 30.5304 117.279 30.2697C117.089 29.9853 116.864 29.7483 116.603 29.5587C116.343 29.3454 116.035 29.1795 115.679 29.061C115.347 28.9425 114.968 28.8833 114.541 28.8833C113.996 28.8833 113.51 28.9781 113.084 29.1677C112.657 29.3573 112.302 29.618 112.017 29.9498C111.733 30.2579 111.508 30.6252 111.342 31.0518C111.2 31.4547 111.093 31.8695 111.022 32.2961Z"/>
<path d="M126.213 43.1032L131.759 35.1401C130.787 34.6424 129.969 34.0499 129.306 33.3626C128.666 32.6516 128.168 31.8458 127.813 30.9452C127.481 30.0446 127.315 29.0847 127.315 28.0657V24.8662H132.825V27.7813C132.825 28.35 132.932 28.8833 133.145 29.381C133.382 29.855 133.69 30.2579 134.069 30.5897C134.472 30.8978 134.911 31.1229 135.385 31.2651L139.58 24.8662H145.801L140.539 32.5094C141.606 32.936 142.506 33.5285 143.241 34.2869C144 35.0216 144.568 35.8629 144.948 36.8109C145.35 37.7589 145.552 38.778 145.552 39.8682V43.1032H140.006V40.0459C140.006 39.406 139.852 38.8254 139.544 38.304C139.26 37.7826 138.869 37.356 138.371 37.0242C137.897 36.6924 137.364 36.5028 136.771 36.4554L132.399 43.1032H126.213Z"/>
<path d="M159.184 43.5298C157.312 43.5298 155.629 43.1151 154.136 42.2856C152.643 41.4561 151.458 40.3185 150.581 38.8728C149.728 37.4271 149.301 35.8037 149.301 34.0025C149.301 32.1776 149.728 30.5541 150.581 29.1321C151.458 27.6865 152.643 26.5489 154.136 25.7194C155.629 24.8662 157.312 24.4396 159.184 24.4396C161.056 24.4396 162.727 24.8662 164.197 25.7194C165.69 26.5489 166.863 27.6865 167.716 29.1321C168.593 30.5541 169.031 32.1776 169.031 34.0025C169.031 35.8037 168.593 37.4271 167.716 38.8728C166.863 40.3185 165.69 41.4561 164.197 42.2856C162.704 43.1151 161.033 43.5298 159.184 43.5298ZM159.184 38.7306C160.061 38.7306 160.819 38.5173 161.459 38.0907C162.099 37.6641 162.597 37.0953 162.952 36.3843C163.308 35.6733 163.486 34.8675 163.486 33.9669C163.486 33.09 163.308 32.2961 162.952 31.5851C162.597 30.8741 162.099 30.3053 161.459 29.8787C160.819 29.4521 160.061 29.2388 159.184 29.2388C158.307 29.2388 157.537 29.4521 156.873 29.8787C156.234 30.3053 155.736 30.8741 155.38 31.5851C155.025 32.2961 154.847 33.09 154.847 33.9669C154.847 34.8675 155.025 35.6733 155.38 36.3843C155.736 37.0953 156.234 37.6641 156.873 38.0907C157.537 38.5173 158.307 38.7306 159.184 38.7306Z"/>
<path d="M173.37 43.1032V32.616C173.37 31.0992 173.738 29.7246 174.472 28.4922C175.207 27.2599 176.25 26.2763 177.601 25.5416C178.975 24.8069 180.599 24.4396 182.471 24.4396C184.367 24.4396 185.978 24.8069 187.306 25.5416C188.657 26.2763 189.688 27.2599 190.399 28.4922C191.11 29.7246 191.465 31.0992 191.465 32.616V43.1032H185.955V32.7582C185.955 32.1183 185.801 31.5377 185.493 31.0163C185.185 30.4712 184.758 30.0446 184.213 29.7365C183.691 29.4047 183.099 29.2388 182.435 29.2388C181.748 29.2388 181.132 29.4047 180.587 29.7365C180.065 30.0446 179.651 30.4712 179.343 31.0163C179.034 31.5377 178.88 32.1183 178.88 32.7582V43.1032H173.37Z"/>
<path d="M196.655 43.1032V24.8662H202.201V43.1032H196.655ZM199.428 22.8043C198.551 22.8043 197.793 22.4843 197.153 21.8444C196.513 21.2045 196.193 20.4462 196.193 19.5693C196.193 18.6924 196.513 17.934 197.153 17.2941C197.793 16.6305 198.551 16.2987 199.428 16.2987C200.305 16.2987 201.063 16.6305 201.703 17.2941C202.343 17.934 202.663 18.6924 202.663 19.5693C202.663 20.4462 202.343 21.2045 201.703 21.8444C201.063 22.4843 200.305 22.8043 199.428 22.8043Z"/>
<path d="M216.262 43.1032C214.366 43.1032 212.683 42.7122 211.214 41.9301C209.745 41.1243 208.583 40.0459 207.73 38.695C206.877 37.3204 206.45 35.7563 206.45 34.0025C206.45 32.2487 206.877 30.6963 207.73 29.3454C208.583 27.9709 209.745 26.8807 211.214 26.0749C212.683 25.2691 214.366 24.8662 216.262 24.8662H218.999V29.5232H216.475C215.551 29.5232 214.757 29.7246 214.094 30.1275C213.43 30.5067 212.909 31.04 212.529 31.7273C212.174 32.3909 211.996 33.1493 211.996 34.0025C211.996 34.8557 212.174 35.6259 212.529 36.3132C212.909 36.9768 213.43 37.51 214.094 37.9129C214.757 38.2921 215.551 38.4817 216.475 38.4817H218.999V43.1032H216.262Z"/>
</mask>
<path d="M79.9893 43.1032V18.2184H89.1255C91.7562 18.2184 94.0314 18.7516 95.9511 19.8181C97.8945 20.8846 99.3994 22.354 100.466 24.2263C101.556 26.0986 102.101 28.2434 102.101 30.6608C102.101 33.0782 101.556 35.223 100.466 37.0953C99.3994 38.9676 97.8945 40.437 95.9511 41.5035C94.0314 42.57 91.7562 43.1032 89.1255 43.1032H79.9893ZM85.9616 38.1262H88.9833C90.3579 38.1262 91.5785 37.83 92.645 37.2375C93.7352 36.6213 94.5884 35.7563 95.2046 34.6424C95.8208 33.5285 96.1289 32.2013 96.1289 30.6608C96.1289 29.1203 95.8208 27.7931 95.2046 26.6792C94.5884 25.5653 93.7352 24.7121 92.645 24.1196C91.5785 23.5034 90.3579 23.1953 88.9833 23.1953H85.9616V38.1262Z" fill="white"/>
<path d="M115.75 43.1032C113.688 43.1032 111.875 42.724 110.311 41.9656C108.747 41.1835 107.526 40.117 106.649 38.7661C105.796 37.3915 105.37 35.8037 105.37 34.0025C105.37 32.0117 105.784 30.3053 106.614 28.8833C107.443 27.4613 108.545 26.3711 109.92 25.6127C111.318 24.8306 112.859 24.4396 114.541 24.4396C116.461 24.4396 118.061 24.8425 119.341 25.6483C120.644 26.4541 121.628 27.5561 122.291 28.9544C122.955 30.329 123.287 31.905 123.287 33.6825C123.287 33.9906 123.263 34.358 123.216 34.7846C123.192 35.1875 123.156 35.5074 123.109 35.7444H111.164C111.306 36.3606 111.579 36.882 111.982 37.3086C112.385 37.7352 112.894 38.0551 113.51 38.2684C114.127 38.458 114.814 38.5528 115.572 38.5528H121.154V43.1032H115.75ZM111.022 32.2961H117.954C117.907 31.9169 117.836 31.5495 117.741 31.194C117.646 30.8385 117.492 30.5304 117.279 30.2697C117.089 29.9853 116.864 29.7483 116.603 29.5587C116.343 29.3454 116.035 29.1795 115.679 29.061C115.347 28.9425 114.968 28.8833 114.541 28.8833C113.996 28.8833 113.51 28.9781 113.084 29.1677C112.657 29.3573 112.302 29.618 112.017 29.9498C111.733 30.2579 111.508 30.6252 111.342 31.0518C111.2 31.4547 111.093 31.8695 111.022 32.2961Z" fill="white"/>
<path d="M126.213 43.1032L131.759 35.1401C130.787 34.6424 129.969 34.0499 129.306 33.3626C128.666 32.6516 128.168 31.8458 127.813 30.9452C127.481 30.0446 127.315 29.0847 127.315 28.0657V24.8662H132.825V27.7813C132.825 28.35 132.932 28.8833 133.145 29.381C133.382 29.855 133.69 30.2579 134.069 30.5897C134.472 30.8978 134.911 31.1229 135.385 31.2651L139.58 24.8662H145.801L140.539 32.5094C141.606 32.936 142.506 33.5285 143.241 34.2869C144 35.0216 144.568 35.8629 144.948 36.8109C145.35 37.7589 145.552 38.778 145.552 39.8682V43.1032H140.006V40.0459C140.006 39.406 139.852 38.8254 139.544 38.304C139.26 37.7826 138.869 37.356 138.371 37.0242C137.897 36.6924 137.364 36.5028 136.771 36.4554L132.399 43.1032H126.213Z" fill="white"/>
<path d="M159.184 43.5298C157.312 43.5298 155.629 43.1151 154.136 42.2856C152.643 41.4561 151.458 40.3185 150.581 38.8728C149.728 37.4271 149.301 35.8037 149.301 34.0025C149.301 32.1776 149.728 30.5541 150.581 29.1321C151.458 27.6865 152.643 26.5489 154.136 25.7194C155.629 24.8662 157.312 24.4396 159.184 24.4396C161.056 24.4396 162.727 24.8662 164.197 25.7194C165.69 26.5489 166.863 27.6865 167.716 29.1321C168.593 30.5541 169.031 32.1776 169.031 34.0025C169.031 35.8037 168.593 37.4271 167.716 38.8728C166.863 40.3185 165.69 41.4561 164.197 42.2856C162.704 43.1151 161.033 43.5298 159.184 43.5298ZM159.184 38.7306C160.061 38.7306 160.819 38.5173 161.459 38.0907C162.099 37.6641 162.597 37.0953 162.952 36.3843C163.308 35.6733 163.486 34.8675 163.486 33.9669C163.486 33.09 163.308 32.2961 162.952 31.5851C162.597 30.8741 162.099 30.3053 161.459 29.8787C160.819 29.4521 160.061 29.2388 159.184 29.2388C158.307 29.2388 157.537 29.4521 156.873 29.8787C156.234 30.3053 155.736 30.8741 155.38 31.5851C155.025 32.2961 154.847 33.09 154.847 33.9669C154.847 34.8675 155.025 35.6733 155.38 36.3843C155.736 37.0953 156.234 37.6641 156.873 38.0907C157.537 38.5173 158.307 38.7306 159.184 38.7306Z" fill="white"/>
<path d="M173.37 43.1032V32.616C173.37 31.0992 173.738 29.7246 174.472 28.4922C175.207 27.2599 176.25 26.2763 177.601 25.5416C178.975 24.8069 180.599 24.4396 182.471 24.4396C184.367 24.4396 185.978 24.8069 187.306 25.5416C188.657 26.2763 189.688 27.2599 190.399 28.4922C191.11 29.7246 191.465 31.0992 191.465 32.616V43.1032H185.955V32.7582C185.955 32.1183 185.801 31.5377 185.493 31.0163C185.185 30.4712 184.758 30.0446 184.213 29.7365C183.691 29.4047 183.099 29.2388 182.435 29.2388C181.748 29.2388 181.132 29.4047 180.587 29.7365C180.065 30.0446 179.651 30.4712 179.343 31.0163C179.034 31.5377 178.88 32.1183 178.88 32.7582V43.1032H173.37Z" fill="white"/>
<path d="M196.655 43.1032V24.8662H202.201V43.1032H196.655ZM199.428 22.8043C198.551 22.8043 197.793 22.4843 197.153 21.8444C196.513 21.2045 196.193 20.4462 196.193 19.5693C196.193 18.6924 196.513 17.934 197.153 17.2941C197.793 16.6305 198.551 16.2987 199.428 16.2987C200.305 16.2987 201.063 16.6305 201.703 17.2941C202.343 17.934 202.663 18.6924 202.663 19.5693C202.663 20.4462 202.343 21.2045 201.703 21.8444C201.063 22.4843 200.305 22.8043 199.428 22.8043Z" fill="white"/>
<path d="M216.262 43.1032C214.366 43.1032 212.683 42.7122 211.214 41.9301C209.745 41.1243 208.583 40.0459 207.73 38.695C206.877 37.3204 206.45 35.7563 206.45 34.0025C206.45 32.2487 206.877 30.6963 207.73 29.3454C208.583 27.9709 209.745 26.8807 211.214 26.0749C212.683 25.2691 214.366 24.8662 216.262 24.8662H218.999V29.5232H216.475C215.551 29.5232 214.757 29.7246 214.094 30.1275C213.43 30.5067 212.909 31.04 212.529 31.7273C212.174 32.3909 211.996 33.1493 211.996 34.0025C211.996 34.8557 212.174 35.6259 212.529 36.3132C212.909 36.9768 213.43 37.51 214.094 37.9129C214.757 38.2921 215.551 38.4817 216.475 38.4817H218.999V43.1032H216.262Z" fill="white"/>
<path d="M79.9893 43.1032V18.2184H89.1255C91.7562 18.2184 94.0314 18.7516 95.9511 19.8181C97.8945 20.8846 99.3994 22.354 100.466 24.2263C101.556 26.0986 102.101 28.2434 102.101 30.6608C102.101 33.0782 101.556 35.223 100.466 37.0953C99.3994 38.9676 97.8945 40.437 95.9511 41.5035C94.0314 42.57 91.7562 43.1032 89.1255 43.1032H79.9893ZM85.9616 38.1262H88.9833C90.3579 38.1262 91.5785 37.83 92.645 37.2375C93.7352 36.6213 94.5884 35.7563 95.2046 34.6424C95.8208 33.5285 96.1289 32.2013 96.1289 30.6608C96.1289 29.1203 95.8208 27.7931 95.2046 26.6792C94.5884 25.5653 93.7352 24.7121 92.645 24.1196C91.5785 23.5034 90.3579 23.1953 88.9833 23.1953H85.9616V38.1262Z" stroke="black" stroke-width="2" mask="url(#path-1-outside-1_876_4)"/>
<path d="M115.75 43.1032C113.688 43.1032 111.875 42.724 110.311 41.9656C108.747 41.1835 107.526 40.117 106.649 38.7661C105.796 37.3915 105.37 35.8037 105.37 34.0025C105.37 32.0117 105.784 30.3053 106.614 28.8833C107.443 27.4613 108.545 26.3711 109.92 25.6127C111.318 24.8306 112.859 24.4396 114.541 24.4396C116.461 24.4396 118.061 24.8425 119.341 25.6483C120.644 26.4541 121.628 27.5561 122.291 28.9544C122.955 30.329 123.287 31.905 123.287 33.6825C123.287 33.9906 123.263 34.358 123.216 34.7846C123.192 35.1875 123.156 35.5074 123.109 35.7444H111.164C111.306 36.3606 111.579 36.882 111.982 37.3086C112.385 37.7352 112.894 38.0551 113.51 38.2684C114.127 38.458 114.814 38.5528 115.572 38.5528H121.154V43.1032H115.75ZM111.022 32.2961H117.954C117.907 31.9169 117.836 31.5495 117.741 31.194C117.646 30.8385 117.492 30.5304 117.279 30.2697C117.089 29.9853 116.864 29.7483 116.603 29.5587C116.343 29.3454 116.035 29.1795 115.679 29.061C115.347 28.9425 114.968 28.8833 114.541 28.8833C113.996 28.8833 113.51 28.9781 113.084 29.1677C112.657 29.3573 112.302 29.618 112.017 29.9498C111.733 30.2579 111.508 30.6252 111.342 31.0518C111.2 31.4547 111.093 31.8695 111.022 32.2961Z" stroke="black" stroke-width="2" mask="url(#path-1-outside-1_876_4)"/>
<path d="M126.213 43.1032L131.759 35.1401C130.787 34.6424 129.969 34.0499 129.306 33.3626C128.666 32.6516 128.168 31.8458 127.813 30.9452C127.481 30.0446 127.315 29.0847 127.315 28.0657V24.8662H132.825V27.7813C132.825 28.35 132.932 28.8833 133.145 29.381C133.382 29.855 133.69 30.2579 134.069 30.5897C134.472 30.8978 134.911 31.1229 135.385 31.2651L139.58 24.8662H145.801L140.539 32.5094C141.606 32.936 142.506 33.5285 143.241 34.2869C144 35.0216 144.568 35.8629 144.948 36.8109C145.35 37.7589 145.552 38.778 145.552 39.8682V43.1032H140.006V40.0459C140.006 39.406 139.852 38.8254 139.544 38.304C139.26 37.7826 138.869 37.356 138.371 37.0242C137.897 36.6924 137.364 36.5028 136.771 36.4554L132.399 43.1032H126.213Z" stroke="black" stroke-width="2" mask="url(#path-1-outside-1_876_4)"/>
<path d="M159.184 43.5298C157.312 43.5298 155.629 43.1151 154.136 42.2856C152.643 41.4561 151.458 40.3185 150.581 38.8728C149.728 37.4271 149.301 35.8037 149.301 34.0025C149.301 32.1776 149.728 30.5541 150.581 29.1321C151.458 27.6865 152.643 26.5489 154.136 25.7194C155.629 24.8662 157.312 24.4396 159.184 24.4396C161.056 24.4396 162.727 24.8662 164.197 25.7194C165.69 26.5489 166.863 27.6865 167.716 29.1321C168.593 30.5541 169.031 32.1776 169.031 34.0025C169.031 35.8037 168.593 37.4271 167.716 38.8728C166.863 40.3185 165.69 41.4561 164.197 42.2856C162.704 43.1151 161.033 43.5298 159.184 43.5298ZM159.184 38.7306C160.061 38.7306 160.819 38.5173 161.459 38.0907C162.099 37.6641 162.597 37.0953 162.952 36.3843C163.308 35.6733 163.486 34.8675 163.486 33.9669C163.486 33.09 163.308 32.2961 162.952 31.5851C162.597 30.8741 162.099 30.3053 161.459 29.8787C160.819 29.4521 160.061 29.2388 159.184 29.2388C158.307 29.2388 157.537 29.4521 156.873 29.8787C156.234 30.3053 155.736 30.8741 155.38 31.5851C155.025 32.2961 154.847 33.09 154.847 33.9669C154.847 34.8675 155.025 35.6733 155.38 36.3843C155.736 37.0953 156.234 37.6641 156.873 38.0907C157.537 38.5173 158.307 38.7306 159.184 38.7306Z" stroke="black" stroke-width="2" mask="url(#path-1-outside-1_876_4)"/>
<path d="M173.37 43.1032V32.616C173.37 31.0992 173.738 29.7246 174.472 28.4922C175.207 27.2599 176.25 26.2763 177.601 25.5416C178.975 24.8069 180.599 24.4396 182.471 24.4396C184.367 24.4396 185.978 24.8069 187.306 25.5416C188.657 26.2763 189.688 27.2599 190.399 28.4922C191.11 29.7246 191.465 31.0992 191.465 32.616V43.1032H185.955V32.7582C185.955 32.1183 185.801 31.5377 185.493 31.0163C185.185 30.4712 184.758 30.0446 184.213 29.7365C183.691 29.4047 183.099 29.2388 182.435 29.2388C181.748 29.2388 181.132 29.4047 180.587 29.7365C180.065 30.0446 179.651 30.4712 179.343 31.0163C179.034 31.5377 178.88 32.1183 178.88 32.7582V43.1032H173.37Z" stroke="black" stroke-width="2" mask="url(#path-1-outside-1_876_4)"/>
<path d="M196.655 43.1032V24.8662H202.201V43.1032H196.655ZM199.428 22.8043C198.551 22.8043 197.793 22.4843 197.153 21.8444C196.513 21.2045 196.193 20.4462 196.193 19.5693C196.193 18.6924 196.513 17.934 197.153 17.2941C197.793 16.6305 198.551 16.2987 199.428 16.2987C200.305 16.2987 201.063 16.6305 201.703 17.2941C202.343 17.934 202.663 18.6924 202.663 19.5693C202.663 20.4462 202.343 21.2045 201.703 21.8444C201.063 22.4843 200.305 22.8043 199.428 22.8043Z" stroke="black" stroke-width="2" mask="url(#path-1-outside-1_876_4)"/>
<path d="M216.262 43.1032C214.366 43.1032 212.683 42.7122 211.214 41.9301C209.745 41.1243 208.583 40.0459 207.73 38.695C206.877 37.3204 206.45 35.7563 206.45 34.0025C206.45 32.2487 206.877 30.6963 207.73 29.3454C208.583 27.9709 209.745 26.8807 211.214 26.0749C212.683 25.2691 214.366 24.8662 216.262 24.8662H218.999V29.5232H216.475C215.551 29.5232 214.757 29.7246 214.094 30.1275C213.43 30.5067 212.909 31.04 212.529 31.7273C212.174 32.3909 211.996 33.1493 211.996 34.0025C211.996 34.8557 212.174 35.6259 212.529 36.3132C212.909 36.9768 213.43 37.51 214.094 37.9129C214.757 38.2921 215.551 38.4817 216.475 38.4817H218.999V43.1032H216.262Z" stroke="black" stroke-width="2" mask="url(#path-1-outside-1_876_4)"/>
<path d="M27.5635 0C43.614 0.000111141 56.8127 12.1996 58.3988 27.8317C58.4318 28.1574 58.6163 28.4511 58.8998 28.6147L61.0777 29.8721C61.7445 30.257 61.7444 31.2194 61.0776 31.6043L58.9505 32.8318C58.6617 32.9986 58.4759 33.3001 58.4479 33.6325C57.1107 49.5188 43.7954 61.996 27.5635 61.9961C15.5593 61.9961 5.1496 55.1714 0 45.1914C4.80622 53.1201 13.5181 58.418 23.4668 58.418C37.9211 58.4177 49.7625 47.2337 50.8112 33.0473C50.8403 32.6529 51.0895 32.3049 51.4585 32.1629L52.7486 31.6665C53.6031 31.3378 53.6032 30.1289 52.7487 29.8L51.4114 29.2853C51.049 29.1458 50.8016 28.8074 50.7655 28.4207C49.4669 14.4848 37.742 3.5764 23.4668 3.57617C13.522 3.57617 4.81229 8.86949 0.00488281 16.793C5.15642 6.81887 15.5636 0 27.5635 0Z" fill="url(#paint0_linear_876_4)"/>
<path d="M11.3438 20.2688C17.0709 20.2691 21.7799 24.6028 22.3823 30.1697C22.4063 30.3911 22.5304 30.5913 22.7232 30.7027L22.7424 30.7138C23.1836 30.9686 23.1833 31.6056 22.7419 31.8601C22.5489 31.9713 22.4261 32.173 22.406 32.3949C21.8931 38.0549 17.1373 42.4902 11.3438 42.4905C8.13159 42.4905 5.23946 41.1249 3.21094 38.9456C5.02738 40.6678 7.47898 41.7267 10.1797 41.7268C15.37 41.7267 19.6476 37.8246 20.2414 32.794C20.2876 32.4028 20.5333 32.0575 20.9008 31.9159L21.7322 31.5954C21.8612 31.5457 21.9463 31.4218 21.9463 31.2835C21.9463 31.1452 21.8611 31.0212 21.732 30.9715L20.8039 30.6145C20.4573 30.4812 20.2171 30.1656 20.1518 29.8C19.3053 25.0588 15.1643 21.4593 10.1797 21.4592C6.1696 21.4593 2.70342 23.7888 1.06055 27.1682C2.72002 23.1205 6.6983 20.2688 11.3438 20.2688Z" fill="url(#paint1_linear_876_4)"/>
<path d="M17.873 11.9222C27.757 11.9227 35.8887 19.4249 36.8844 29.0457C36.9184 29.3743 37.1028 29.6714 37.3889 29.8366L37.6913 30.0112C38.358 30.3961 38.3579 31.3584 37.6912 31.7433L37.42 31.8998C37.1286 32.068 36.9431 32.3729 36.914 32.7081C36.067 42.4815 27.8659 50.1513 17.873 50.1517C10.2165 50.1516 3.6127 45.6479 0.561523 39.1468C3.4188 44.2429 8.87188 47.6878 15.1299 47.6878C23.6451 47.6872 30.6693 41.3099 31.6905 33.071C31.7376 32.6914 31.9824 32.3614 32.3394 32.2241L33.4247 31.8065C34.2791 31.4777 34.2792 30.2688 33.4248 29.9399L32.3059 29.5092C31.9541 29.3738 31.7109 29.0511 31.659 28.6778C30.5301 20.5579 23.5604 14.3067 15.1299 14.306C9.04222 14.306 3.71551 17.5654 0.799805 22.4339C3.94786 16.1985 10.411 11.9223 17.873 11.9222Z" fill="url(#paint2_linear_876_4)"/>
<defs>
<linearGradient id="paint0_linear_876_4" x1="82.1706" y1="29.0115" x2="1.04415" y2="29.0115" gradientUnits="userSpaceOnUse">
<stop offset="0.0103566" stop-color="#00FFF2"/>
<stop offset="1" stop-color="#240061"/>
</linearGradient>
<linearGradient id="paint1_linear_876_4" x1="30.5068" y1="30.6676" x2="1.83992" y2="30.6676" gradientUnits="userSpaceOnUse">
<stop offset="0.0103566" stop-color="#00FFF2"/>
<stop offset="1" stop-color="#240061"/>
</linearGradient>
<linearGradient id="paint2_linear_876_4" x1="51.0281" y1="29.812" x2="1.52437" y2="29.812" gradientUnits="userSpaceOnUse">
<stop offset="0.0103566" stop-color="#00FFF2"/>
<stop offset="1" stop-color="#240061"/>
</linearGradient>
</defs>
</svg>
