<svg width="24" height="25" viewBox="0 0 24 25" fill="none" xmlns="http://www.w3.org/2000/svg">
<path d="M11.1538 3.53845H2C1.44772 3.53845 1 3.98617 1 4.53845V22.8461C1 23.3984 1.44772 23.8461 2 23.8461H20.3077C20.86 23.8461 21.3077 23.3984 21.3077 22.8461V12.8461" stroke="#5F5F5F" stroke-width="2" stroke-linecap="round"/>
<path d="M9.09367 13.4928C8.70315 13.8834 8.70315 14.5165 9.09367 14.9071C9.4842 15.2976 10.1174 15.2976 10.5079 14.9071L9.09367 13.4928ZM24.0008 0.999952C24.0008 0.447667 23.5531 -4.80153e-05 23.0008 -4.82915e-05L14.0008 -4.787e-05C13.4485 -4.82305e-05 13.0008 0.447667 13.0008 0.999952C13.0008 1.55224 13.4485 1.99995 14.0008 1.99995H22.0008L22.0008 9.99995C22.0008 10.5522 22.4485 11 23.0008 11C23.5531 11 24.0008 10.5522 24.0008 9.99995L24.0008 0.999952ZM9.80078 14.2L10.5079 14.9071L23.7079 1.70706L23.0008 0.999952L22.2937 0.292845L9.09367 13.4928L9.80078 14.2Z" fill="#5F5F5F"/>
</svg>
