<?xml version="1.0" standalone="no"?>
<!DOCTYPE svg PUBLIC "-//W3C//DTD SVG 20010904//EN"
 "http://www.w3.org/TR/2001/REC-SVG-20010904/DTD/svg10.dtd">
<svg version="1.0" xmlns="http://www.w3.org/2000/svg"
 width="64.000000pt" height="64.000000pt" viewBox="0 0 64.000000 64.000000"
 preserveAspectRatio="xMidYMid meet">

<g transform="translate(0.000000,64.000000) scale(0.100000,-0.100000)"
fill="#000000" stroke="none">
<path d="M80 320 l0 -110 65 0 c58 0 65 2 65 20 0 17 -7 20 -40 20 -36 0 -40
3 -40 25 0 22 4 25 35 25 28 0 35 4 35 20 0 16 -7 20 -35 20 -31 0 -35 3 -35
25 0 23 4 25 40 25 33 0 40 3 40 20 0 18 -7 20 -65 20 l-65 0 0 -110z"/>
<path d="M250 320 l0 -110 34 0 c33 0 35 2 38 38 l3 37 95 3 c80 2 98 6 117
24 31 29 30 71 -3 97 -24 19 -40 21 -155 21 l-129 0 0 -110z m208 64 c25 -7
30 -39 6 -48 -9 -3 -45 -6 -80 -6 -60 0 -64 1 -64 23 0 13 3 27 7 30 8 9 100
9 131 1z"/>
</g>
</svg>
