<?xml version="1.0" standalone="no"?>
<!DOCTYPE svg PUBLIC "-//W3C//DTD SVG 20010904//EN"
 "http://www.w3.org/TR/2001/REC-SVG-20010904/DTD/svg10.dtd">
<svg version="1.0" xmlns="http://www.w3.org/2000/svg"
 width="64.000000pt" height="64.000000pt" viewBox="0 0 64.000000 64.000000"
 preserveAspectRatio="xMidYMid meet">

<g transform="translate(0.000000,64.000000) scale(0.100000,-0.100000)"
fill="#000000" stroke="none">
<path d="M220 624 c-227 -82 -293 -362 -125 -529 65 -65 125 -89 225 -89 100
0 160 24 225 89 65 65 89 125 89 225 0 100 -24 160 -89 225 -82 82 -222 116
-325 79z m220 -36 c186 -80 232 -328 88 -475 -182 -186 -501 -54 -501 207 0
215 214 354 413 268z"/>
<path d="M111 363 c-50 -41 -43 -134 16 -203 54 -63 104 -85 193 -85 87 0 137
22 189 81 40 45 51 73 51 130 0 64 -34 98 -93 91 -23 -2 -66 -15 -94 -27 l-53
-24 -52 24 c-73 32 -128 37 -157 13z m84 -13 c3 -5 -12 -40 -33 -76 -37 -61
-41 -65 -51 -46 -17 32 -13 77 10 106 21 26 62 35 74 16z m320 -15 c27 -26 33
-72 14 -107 -10 -19 -14 -15 -51 46 -21 36 -36 71 -33 76 11 18 45 11 70 -15z
m-205 -132 l0 -103 -27 0 c-33 0 -104 34 -129 61 -20 22 -18 29 52 141 l23 37
41 -17 40 -17 0 -102z m150 57 c23 -39 39 -78 36 -85 -9 -24 -83 -66 -125 -72
l-41 -6 0 104 0 104 38 16 c20 9 40 14 43 13 4 -2 25 -36 49 -74z"/>
</g>
</svg>
