<?xml version="1.0" standalone="no"?>
<!DOCTYPE svg PUBLIC "-//W3C//DTD SVG 20010904//EN"
 "http://www.w3.org/TR/2001/REC-SVG-20010904/DTD/svg10.dtd">
<svg version="1.0" xmlns="http://www.w3.org/2000/svg"
 width="64.000000pt" height="64.000000pt" viewBox="0 0 64.000000 64.000000"
 preserveAspectRatio="xMidYMid meet">

<g transform="translate(0.000000,64.000000) scale(0.100000,-0.100000)"
fill="#000000" stroke="none">
<path d="M220 624 c-227 -82 -293 -362 -125 -529 65 -66 125 -90 225 -90 100
0 160 24 225 90 66 65 90 125 90 225 0 100 -24 160 -90 225 -82 82 -222 116
-325 79z m200 -131 c47 -31 88 -61 92 -67 4 -6 8 -66 8 -133 0 -97 -3 -125
-16 -137 -13 -13 -45 -16 -189 -16 -162 0 -175 1 -185 19 -11 22 -14 250 -2
267 12 18 176 124 192 124 8 0 53 -25 100 -57z"/>
<path d="M230 457 l-75 -52 -3 -110 c-2 -95 0 -111 15 -122 24 -18 282 -18
306 0 15 11 17 27 15 122 l-3 110 -75 52 c-41 29 -82 52 -90 52 -8 0 -49 -23
-90 -52z m172 -84 c49 -47 40 -53 -82 -53 -91 0 -110 3 -110 15 0 12 16 15 87
15 83 0 85 1 70 18 -15 16 -14 32 2 32 3 0 18 -12 33 -27z m28 -78 c0 -12 -16
-15 -86 -15 -77 0 -85 -2 -74 -15 10 -12 10 -19 2 -27 -15 -15 -62 27 -62 54
0 16 10 18 110 18 91 0 110 -3 110 -15z"/>
</g>
</svg>
