<?xml version="1.0" standalone="no"?>
<!DOCTYPE svg PUBLIC "-//W3C//DTD SVG 20010904//EN"
 "http://www.w3.org/TR/2001/REC-SVG-20010904/DTD/svg10.dtd">
<svg version="1.0" xmlns="http://www.w3.org/2000/svg"
 width="64.000000pt" height="64.000000pt" viewBox="0 0 64.000000 64.000000"
 preserveAspectRatio="xMidYMid meet">

<g transform="translate(0.000000,64.000000) scale(0.100000,-0.100000)"
fill="#000000" stroke="none">
<path d="M245 553 c-35 -7 -98 -57 -130 -101 -25 -37 -30 -55 -33 -117 -4 -62
0 -82 18 -117 29 -56 56 -86 103 -109 l37 -20 10 26 c24 62 23 71 -6 70 -14 0
-31 8 -38 17 -10 17 -9 24 19 90 5 13 1 20 -18 27 -35 13 -40 37 -18 86 22 49
33 59 60 50 28 -9 33 -31 14 -76 -19 -49 -8 -69 30 -52 23 11 43 62 40 101 0
6 4 12 9 12 6 0 8 7 4 15 -3 8 -1 15 4 15 5 0 9 8 9 18 0 23 5 44 14 60 6 9
-6 12 -50 11 -32 -1 -67 -4 -78 -6z"/>
</g>
</svg>
