<?xml version="1.0" standalone="no"?>
<!DOCTYPE svg PUBLIC "-//W3C//DTD SVG 20010904//EN"
 "http://www.w3.org/TR/2001/REC-SVG-20010904/DTD/svg10.dtd">
<svg version="1.0" xmlns="http://www.w3.org/2000/svg"
 width="64.000000pt" height="64.000000pt" viewBox="0 0 64.000000 64.000000"
 preserveAspectRatio="xMidYMid meet">

<g transform="translate(0.000000,64.000000) scale(0.100000,-0.100000)"
fill="#000000" stroke="none">
<path d="M213 619 c-211 -73 -280 -354 -126 -514 157 -165 426 -123 520 81 36
80 40 149 13 233 -54 169 -237 259 -407 200z m69 -174 c6 -14 14 -25 18 -25 4
0 17 11 30 25 25 27 62 33 77 13 6 -7 32 -55 59 -105 l49 -93 -45 -45 c-53
-53 -93 -61 -112 -20 -14 31 -19 31 -48 0 -13 -14 -34 -25 -49 -25 -23 0 -33
13 -78 100 -29 55 -53 102 -53 105 0 3 19 26 41 50 50 54 92 61 111 20z"/>
<path d="M212 393 l-21 -28 37 -67 c20 -38 39 -68 43 -68 3 0 14 9 24 20 18
20 18 22 -5 70 -13 27 -31 61 -40 75 l-17 26 -21 -28z"/>
<path d="M345 390 c-19 -20 -18 -22 19 -98 l38 -77 24 29 24 28 -37 69 c-20
38 -40 69 -44 69 -3 0 -14 -9 -24 -20z"/>
</g>
</svg>
