<?xml version="1.0" standalone="no"?>
<!DOCTYPE svg PUBLIC "-//W3C//DTD SVG 20010904//EN"
 "http://www.w3.org/TR/2001/REC-SVG-20010904/DTD/svg10.dtd">
<svg version="1.0" xmlns="http://www.w3.org/2000/svg"
 width="64.000000pt" height="64.000000pt" viewBox="0 0 64.000000 64.000000"
 preserveAspectRatio="xMidYMid meet">

<g transform="translate(0.000000,64.000000) scale(0.100000,-0.100000)"
fill="#000000" stroke="none">
<path d="M0 320 l0 -320 320 0 320 0 0 320 0 320 -320 0 -320 0 0 -320z m298
98 l-3 -92 -75 -42 c-75 -42 -75 -42 -87 -21 -11 20 -7 25 37 53 l48 30 -44
27 c-40 24 -43 29 -32 47 16 25 20 25 60 0 18 -11 36 -20 41 -20 4 0 7 25 7
55 0 52 1 55 25 55 l26 0 -3 -92z m92 32 l0 -60 47 29 48 30 12 -22 c17 -31
18 -30 -32 -57 l-44 -24 49 -29 c56 -32 54 -30 38 -56 -10 -17 -14 -16 -72 16
-96 54 -96 54 -96 150 0 82 0 83 25 83 24 0 25 -3 25 -60z m18 -201 c63 -36
70 -44 61 -60 -13 -25 -22 -24 -75 7 l-44 26 0 -51 c0 -50 -1 -51 -30 -51 -29
0 -30 1 -30 49 l0 49 -50 -27 c-43 -22 -52 -24 -60 -11 -5 8 -10 20 -10 25 0
12 128 84 151 85 9 0 48 -19 87 -41z"/>
</g>
</svg>
